<svg width="286" height="286" viewBox="0 0 286 286" fill="none" xmlns="http://www.w3.org/2000/svg">
<g clip-path="url(#clip0_2_213)">
<path fill-rule="evenodd" clip-rule="evenodd" d="M71.424 107.807C62.63 108.629 59.713 109.211 51.346 118.125L22.38 147.95C12.05 156.574 15.556 157.465 21.523 163.041C23.329 164.728 25.987 166.537 27.913 167.618C32.68 170.316 38.381 171.229 43.738 172.102C68.696 176.188 93.636 180.501 118.633 183.56C125.992 184.453 134.705 183.655 140.731 180.006C155.432 171.134 166.71 158.843 182.924 150.398C183.939 149.87 185.411 149.499 185.95 149.401C187.517 149.115 189.233 149.083 190.075 149.058C196.569 148.868 220.532 148.219 230.074 148.699C231.761 148.784 232.731 149.961 232.721 151.425C232.522 179.488 234.388 176.291 210.374 177.47C211.117 178.516 212.264 179.991 213.084 180.885C213.313 181.151 213.656 181.304 214.018 181.304C217.108 181.341 219.972 181.395 224.796 181.488C225.463 181.508 225.768 182.324 225.273 182.762C221.001 186.543 217.877 188.933 214.769 191.668C214.54 191.878 214.426 192.163 214.445 192.467C214.522 193.378 214.551 195.05 214.723 196.513C218.822 194.214 224.186 190.589 228.876 187.949C229.447 187.627 230.135 188.158 229.963 188.785C229.143 191.995 228.38 194.693 227.732 197.221C227.675 197.468 227.713 197.715 227.847 197.942C228.438 198.854 229.473 200.095 230.179 200.836C232.028 197.417 234.482 192.072 236.389 188.576C236.694 188.063 237.224 187.951 237.776 188.182C239.972 189.101 241.04 190.317 244.089 192.69C244.242 191.245 244.473 190.039 244.529 189.43C244.587 188.899 244.739 187.507 244.718 187.345C244.66 187.08 244.358 186.764 244.053 186.593C241.269 184.692 238.282 182.746 238.416 174.804C238.608 162.681 243.244 144.571 239.793 140.961C236.495 137.521 214.645 138.747 199.143 138.367C198.666 138.348 198.389 138.255 198.193 138.125C198.057 138.024 197.668 137.842 197.65 137.145C198.088 131.939 215.816 120.69 224.32 112.918L259.153 79.5927C261.728 76.9321 264.645 74.7657 267.657 72.6949C267.659 72.6959 267.659 72.6959 267.661 72.6959C279.338 93.3285 286 117.13 286 142.5C286 158.499 283.35 173.87 278.487 188.215C278.221 188.956 277.973 189.697 277.705 190.419C257.862 245.791 204.614 285.363 142.146 285.001C63.397 284.54 -0.00399981 220.969 1.89261e-07 142.495C0.00300019 63.7991 64.028 0 143 0C155.47 0 167.558 1.5964 179.073 4.57993C181.285 5.14993 183.497 5.77673 185.671 6.46133C184.775 10.0517 184.336 11.8185 183.249 15.1628C177.854 31.9967 172.191 51.586 165.632 65.0956C163.725 69.0278 162.429 70.7886 159.563 74.5225C159.592 74.4856 159.184 74.9909 158.89 75.3546C158.247 76.2126 157.06 77.8708 156.657 77.9196C155.852 78.0721 155.015 77.5041 155.079 76.386C155.503 69.0248 160.427 51.8521 156.862 51.0917C152.952 50.2756 134.605 64.2715 125.41 60.1549C124.307 59.6607 123.332 59.2132 122.58 58.6891C121.282 57.7842 120.237 56.5715 119.47 55.1894C118.471 53.3907 116.927 50.6284 116.402 49.7813C116.287 49.591 116.135 49.3817 115.468 49.2482L111.133 48.3593L114.113 55.0249C114.419 55.7653 113.751 56.5635 112.95 56.3921L99.127 53.3339C99.127 53.3339 99.417 55.3418 99.856 57.3548C99.874 57.583 100.046 57.7733 100.275 57.7922C109.008 59.7504 112.531 61.2192 113.999 62.9093C114.438 63.4225 114.152 64.2207 113.466 64.3542L99.22 65.6118L101.968 69.3317C102.121 69.5031 102.312 69.5789 102.522 69.541C104.961 69.0856 109.385 68.4578 113.485 68.7239C115.01 68.8185 116.997 69.251 117.66 69.9974C117.936 70.3073 117.986 70.8145 117.513 71.2052L109.862 77.245C109.862 77.245 112.455 77.7871 113.923 78.0721C114.743 78.2425 115.312 78.2773 115.849 77.806C121.51 72.8394 124.266 70.964 129.451 68.9889C140.281 64.8843 144.477 63.3059 147.097 62.3981C148.137 62.0363 149.379 62.6023 149.232 63.7732C149.177 64.2027 147.637 76.5683 145.653 84.1687C145.425 85.0426 145.27 85.792 144.371 86.5702C144.216 86.6958 143.305 87.4203 142.656 87.6863C139.89 88.918 136.64 90.2503 133.05 91.5797C132.917 91.6235 132.785 91.6684 132.653 91.7122C116.368 96.5951 97.469 102.239 95.657 102.753C95.657 102.734 95.676 102.734 95.676 102.734C95.695 102.734 95.695 102.716 95.714 102.716C94.742 102.886 84.548 105.523 78.713 106.72L71.424 107.807Z" fill="#24EBA3"/>
</g>
<defs>
<clipPath id="clip0_2_213">
<rect width="286" height="286" fill="white"/>
</clipPath>
</defs>
</svg>
